# xmcd
#
# Track frame offsets:
#  150
#  23300
#  44320
#  61472
#  78954
#  100082
#  127825
#  135655
#  158900
#  181320
#
# Disc length: 2736 seconds
#
# Revision: 2
# Processed by: cddbd v1.4PL0 Copyright (c) Steve Scherf et al.
# Submitted via: AltoMP3_Maker 3.0
#
DISCID=700aae0a
DTITLE=刘若英 - 雨季
DYEAR=1900
DGENRE=
TTITLE0=打了一把钥匙给你
TTITLE1=雨季
TTITLE2=蒲公英
TTITLE3=骂你
TTITLE4=Monica
TTITLE5=男人的皮衣
TTITLE6=歌词给我(音乐+O.S)
TTITLE7=背影
TTITLE8=单车失窃记
TTITLE9=说话
EXTD=
EXTT0=
EXTT1=
EXTT2=
EXTT3=
EXTT4=
EXTT5=
EXTT6=
EXTT7=
EXTT8=
EXTT9=
PLAYORDER=
